<svg width="131" height="38" viewBox="0 0 131 38" fill="none" xmlns="http://www.w3.org/2000/svg">
<path d="M55.421 15.262V12.321H46.02V24H55.421V21.059H49.318V19.512H54.877V16.571H49.318V15.262H55.421Z" fill="#3E64FF"/>
<path d="M56.7192 20.617H61.5472V17.931H56.7192V20.617Z" fill="#3E64FF"/>
<path d="M71.1922 12.321L68.5742 19.155L65.9392 12.321H62.2162L66.7042 24H70.4272L74.9152 12.321H71.1922Z" fill="#3E64FF"/>
<path d="M76.0206 24H79.3186V12.321H76.0206V24Z" fill="#3E64FF"/>
<path d="M81.4145 24H85.7665C89.8465 24 92.7365 21.569 92.7365 18.152C92.7365 14.735 89.8465 12.321 85.7665 12.321H81.4145V24ZM84.7125 21.008V15.313H86.3105C88.0785 15.313 89.3365 16.486 89.3365 18.152C89.3365 19.818 88.0785 21.008 86.3105 21.008H84.7125Z" fill="#3E64FF"/>
<path d="M101.896 12.321V16.571H97.6285V12.321H94.3305V24H97.6285V19.512H101.896V24H105.194V12.321H101.896Z" fill="#3E64FF"/>
<path d="M110.596 24H113.894V20.158L118.365 12.321H114.744L112.245 17.064L109.882 12.321H106.108L110.596 20.158V24Z" fill="#3E64FF"/>
<path d="M127.173 24H130.896L126.408 12.321H122.685L118.197 24H121.92L122.515 22.436H126.578L127.173 24ZM123.45 20.005L124.555 17.166L125.643 20.005H123.45Z" fill="#3E64FF"/>
<path d="M38 19C38 23.6424 36.3003 28.1242 33.2219 31.5991C30.1435 35.074 25.8994 37.3017 21.2908 37.8614C16.6823 38.4211 12.0283 37.2742 8.20756 34.6372C4.38681 32.0003 1.66371 28.0557 0.552412 23.5482C-0.55889 19.0408 0.0185089 14.2825 2.17559 10.1717C4.33267 6.06086 7.92016 2.88203 12.2607 1.23537C16.6013 -0.411282 21.3945 -0.411808 25.7354 1.2339C30.0763 2.8796 33.6645 6.05764 35.8225 10.168L8.20756 34.6372L38 19Z" fill="#3E64FF"/>
</svg>
